<?xml version="1.0" encoding="UTF-8" standalone="no"?>
<svg width="52px" height="8px" viewBox="0 0 52 8" version="1.1" xmlns="http://www.w3.org/2000/svg" xmlns:xlink="http://www.w3.org/1999/xlink">
    <!-- Generator: Sketch 3.6.1 (26313) - http://www.bohemiancoding.com/sketch -->
    <title>Group 2</title>
    <desc>Created with Sketch.</desc>
    <defs></defs>
    <g id="Page-1" stroke="none" stroke-width="1" fill="none" fill-rule="evenodd">
        <g id="signature" transform="translate(-185.000000, -851.000000)" fill="#FFFFFF">
            <g id="Group-2" transform="translate(185.000000, 851.000000)">
                <path d="M1.94,1.31 C1.94,1.18 1.94,1.11 2.06,1.08 C2.89,0.93 3.49,0.45 4.27,0.31 C5.04830762,0.218493773 5.79091889,0.661598835 6.08,1.39 C7.18,3.31 5.05,6.81 1.83,7.88 C1.57815929,8.00513868 1.27619339,7.96984397 1.06,7.79 C0.872580614,7.65312416 0.704408462,7.49167889 0.56,7.31 C0.296788612,6.92758019 0.296788612,6.42241981 0.56,6.04 C1.11802286,4.54035645 1.84255557,3.10806262 2.72,1.77 C2.39440189,1.77472282 2.09342468,1.59722343 1.94,1.31 L1.94,1.31 Z M3.04,2.91 C2.2938671,4.10973042 1.65153416,5.37097792 1.12,6.68 C0.97,7.18 1.05,7.31 1.41,7.22 C4.69,5.97 6.2,2.54 5.49,1.41 C5.07,0.74 4.19,1.41 3.36,1.65 C3.40480538,2.09456116 3.29150241,2.54069161 3.04,2.91 L3.04,2.91 Z" id="Shape"></path>
                <path d="M10.07,3.15 C10.1766667,2.99666667 10.2733333,2.97333333 10.36,3.08 C10.6017857,3.49036698 10.6017857,3.99963302 10.36,4.41 C10.1,4.95 9.5,5.85 9.21,6.48 C8.92,7.11 8.9,7.67 9.31,7.64 C10.0383927,7.31962111 10.6051506,6.71676397 10.88,5.97 C10.94,5.86 11.02,5.85 11.07,5.97 C11.1226676,6.22189422 11.0836589,6.48431647 10.96,6.71 C10.6503075,7.41686679 9.98701505,7.9048061 9.22,7.99 C8.94880961,8.01131118 8.68188411,7.9128194 8.48953236,7.72046764 C8.2971806,7.52811589 8.19868882,7.26119039 8.22,6.99 C7.88294232,7.50905877 7.33408646,7.85300843 6.72,7.93 C5.62,7.95 5.36,6.42 6.36,4.97 C7.36,3.52 8.28,2.97 8.88,2.97 C9.0983913,2.96650364 9.30687399,3.06098117 9.44822045,3.22749892 C9.58956691,3.39401667 9.64892457,3.61507708 9.61,3.83 C9.8,3.59 9.94,3.31 10.07,3.15 L10.07,3.15 Z M9.07,3.64 C8.69,3.64 7.81,4.38 7.15,5.45 C6.49,6.52 6.36,7.54 6.87,7.55 C7.38,7.56 7.99,6.79 8.6,5.74 C9.36,4.42 9.46,3.68 9.11,3.64 L9.07,3.64 Z" id="Shape"></path>
                <path d="M14.36,3.07 C14.58408,3.15780701 14.7617759,3.33451434 14.8508316,3.55810099 C14.9398873,3.78168764 14.9323456,4.03217603 14.83,4.25 C15.3005473,3.71484107 15.9149041,3.32609554 16.6,3.13 C17.03,3.13 17.13,3.85 16.89,4.45 C16.65,5.05 16.09,5.78 15.79,6.38 C15.49,6.98 15.62,7.62 16.05,7.6 C16.48,7.58 17.05,6.8 17.55,5.96 C17.5690759,5.91624643 17.6122688,5.88795832 17.66,5.88795832 C17.7077312,5.88795832 17.7509241,5.91624643 17.77,5.96 C17.8198818,6.21849417 17.7811267,6.48625706 17.66,6.72 C17.3220182,7.429481 16.6411168,7.91367752 15.86,8 C14.86,8 14.43,7.17 14.86,6.19 C15.29,5.21 16.37,3.85 16.19,3.79 C15.6701433,3.91708503 15.2148132,4.23012448 14.91,4.67 C14.0357157,5.61472726 13.3440418,6.71326823 12.87,7.91 C12.8,8.05 12.7,8.09 12.59,7.97 C12.2765753,7.51545889 12.2765753,6.91454111 12.59,6.46 C12.99,5.46 14.28,3.81 14.04,3.73 C13.4285249,3.91355086 12.8988589,4.30197261 12.54,4.83 C11.7946672,5.72803771 11.2002508,6.7412475 10.78,7.83 C10.78,7.94 10.66,7.99 10.55,7.89 C10.2516163,7.54371158 10.203555,7.0470783 10.43,6.65 C10.9334054,5.39905883 11.5633452,4.20284347 12.31,3.08 C12.39,2.95 12.49,2.96 12.56,3.08 C12.7511821,3.4852503 12.7511821,3.9547497 12.56,4.36 C13.0186191,3.76082864 13.6452328,3.31175543 14.36,3.07 L14.36,3.07 Z" id="Shape"></path>
                <path d="M23.08,3.21 C23.22,3.1 23.34,3.05 23.44,3.21 C23.76183,3.53024577 23.8275312,4.02711144 23.6,4.42 C23.0252599,5.03345108 22.5646962,5.74461572 22.24,6.52 C22.02,7.17 22.16,7.67 22.54,7.68 C22.92,7.69 23.63,6.91 24.02,6.01 C24.02,5.9 24.15,5.9 24.2,6.01 C24.2791704,6.26825307 24.2577365,6.54689362 24.14,6.79 C23.8549647,7.47484164 23.2009273,7.93422506 22.46,7.97 C21.55,7.97 21.18,7.13 21.46,6.16 C21.8153335,5.30340388 22.3312751,4.52270267 22.98,3.86 C22.5494145,4.14509042 22.0463364,4.3012181 21.53,4.31 C20.79,6.01 19.59,7.78 18.28,7.92 C17.36,8.02 17.12,7.16 17.43,6.18 C17.8275964,5.16365834 18.3481359,4.19982077 18.98,3.31 C19.09,3.17 19.17,3.13 19.27,3.24 C19.5017462,3.64948507 19.5017462,4.15051493 19.27,4.56 C19.04,5.09 18.55,5.77 18.27,6.56 C17.99,7.35 17.97,7.65 18.36,7.6 C19.14,7.5 20.36,6.12 21.07,4.27 C20.15,3.92 21.32,2.27 21.83,2.27 C22.34,2.27 22.06,3.01 21.77,3.77 C22.2452982,3.69123019 22.6946343,3.49914755 23.08,3.21 L23.08,3.21 Z M20.08,3.07 C19.9746846,3.16040102 19.8315086,3.19293564 19.697468,3.15692473 C19.5634274,3.12091381 19.4558324,3.02100789 19.41,2.89 C19.2371692,2.61466297 19.2613965,2.25933014 19.47,2.01 C19.5916512,1.92261354 19.7488087,1.90148422 19.8892205,1.95363717 C20.0296323,2.00579012 20.134891,2.12438833 20.17,2.27 C20.3021071,2.52548915 20.2828909,2.83294822 20.12,3.07 L20.08,3.07 Z" id="Shape"></path>
                <path d="M26.79,7.89 C26.79,8 26.67,8.02 26.6,7.89 C26.3587714,7.48824435 26.3362141,6.99198358 26.54,6.57 C27.3979024,4.46356921 28.4315497,2.43307116 29.63,0.5 C29.74,0.36 29.82,0.37 29.92,0.5 C30.1515341,1.10916372 30.0492376,1.7949293 29.65,2.31 C29.36,2.84 28.94,3.55 28.51,4.31 C30.079638,3.1458454 31.5481867,1.85124776 32.9,0.44 C32.91516,0.389139759 32.9619284,0.354278273 33.015,0.354278273 C33.0680716,0.354278273 33.11484,0.389139759 33.13,0.44 C33.2148216,0.894980323 33.0773525,1.36311842 32.76,1.7 C31.6379778,2.97365547 30.3614553,4.10237007 28.96,5.06 C29.2752389,5.54123534 29.5591597,6.04227214 29.81,6.56 C30.0584029,6.96853786 30.0584029,7.48146214 29.81,7.89 C29.7909241,7.93375357 29.7477312,7.96204168 29.7,7.96204168 C29.6522688,7.96204168 29.6090759,7.93375357 29.59,7.89 C29.1260742,6.9973189 28.6049901,6.13552599 28.03,5.31 C27.61,6.06 27.19,6.96 26.79,7.89 L26.79,7.89 Z" id="Shape"></path>
                <path d="M34.36,5.31 C34.1360523,6.39465869 33.4392219,7.32254328 32.46,7.84 C31.8917693,8.02846235 31.2678561,7.81091367 30.94,7.31 C30.471078,6.45002395 30.5452621,5.39582962 31.13,4.61 C31.4885709,3.82060979 32.1949043,3.24370922 33.04,3.05 C33.3713386,3.00683259 33.6957308,3.16902868 33.86,3.46 C34.2749237,3.76376241 34.4899225,4.2705453 34.42,4.78 L34.42,5.06 L34.66,5.06 C34.74,5.06 34.74,5.12 34.66,5.18 C34.5778329,5.2564021 34.4719344,5.30229145 34.36,5.31 L34.36,5.31 Z M33.36,5.01 C33.0368987,4.74880158 32.8375288,4.36456149 32.81,3.95 C32.4396878,4.27004161 32.1283135,4.65249046 31.89,5.08 C31.39,5.99 31.21,7.08 31.52,7.36 C31.83,7.64 32.55,7.31 33.14,6.16 C33.3086222,5.83942415 33.4491479,5.5048393 33.56,5.16 C33.4895154,5.13492249 33.4223528,5.10134118 33.36,5.06 L33.36,5.01 Z M33.77,3.94 C33.71,3.56 33.47,3.63 33.41,3.94 C33.359059,4.24839666 33.4552518,4.56287298 33.67,4.79 C33.740067,4.52950171 33.7637614,4.25870828 33.74,3.99 L33.77,3.94 Z" id="Shape"></path>
                <path d="M35.27,2.8 C35.15,2.63 35.27,2.55 35.4,2.56 C35.7328802,2.58457927 36.0671198,2.58457927 36.4,2.56 C36.6899479,2.03174966 37.0104935,1.52088024 37.36,1.03 C37.47,0.87 37.59,0.89 37.65,1.03 C37.7975375,1.4849754 37.7391007,1.98168792 37.49,2.39 C37.7863557,2.35187975 38.077067,2.49330691 38.23,2.75 C38.31,2.89 38.23,2.98 38.09,2.98 C37.7780286,2.93868526 37.4619714,2.93868526 37.15,2.98 C36.68,3.78 36,4.98 35.54,5.98 C35.08,6.98 35.28,7.6 35.78,7.62 C36.28,7.64 36.97,6.81 37.36,5.91 C37.43,5.77 37.56,5.74 37.61,5.91 C37.6520087,6.14372489 37.609471,6.38477153 37.49,6.59 C37.1267985,7.34097051 36.4077704,7.85671317 35.58,7.96 C34.79,7.96 34.15,7.05 34.73,5.67 C34.98,5.07 35.49,4.06 36,3.12 C35.7228349,3.11910838 35.4584718,3.00322316 35.27,2.8 L35.27,2.8 Z" id="Shape"></path>
                <path d="M43.36,7.99 C42.44,7.99 42.07,7.14 42.36,6.16 C42.7136952,5.31324318 43.2224158,4.53998776 43.86,3.88 C43.4120065,4.1651584 42.8910303,4.31450491 42.36,4.31 C42.0705536,4.87934345 41.5065631,5.25786056 40.87,5.31 C40.6635413,6.39619273 39.975863,7.33025846 39,7.85 C38.4294464,8.04027159 37.8026302,7.81758686 37.48,7.31 C37.0253452,6.44821559 37.0949725,5.4038056 37.66,4.61 C38.0276586,3.81966307 38.740142,3.24376974 39.59,3.05 C39.9154994,3.0097569 40.2325892,3.17226543 40.39,3.46 C40.814258,3.75749806 41.0378169,4.26628719 40.97,4.78 L40.97,4.97 C41.3537821,4.89030925 41.6850495,4.65004939 41.88,4.31 C40.99,3.93 42.17,2.31 42.65,2.31 C43.13,2.31 42.85,3.17 42.65,3.81 C43.1185137,3.71728806 43.5597052,3.5189229 43.94,3.23 C44.1,3.12 44.2,3.09 44.3,3.23 C44.6268219,3.5518435 44.6927789,4.05476623 44.46,4.45 C43.8869232,5.06098267 43.4264905,5.76855928 43.1,6.54 C42.87,7.2 43.02,7.67 43.4,7.69 C43.78,7.71 44.49,6.92 44.88,6.05 C44.88,5.94 45.01,5.92 45.06,6.05 C45.1655802,6.29928156 45.1655802,6.58071844 45.06,6.83 C44.7620322,7.51014736 44.1019687,7.96054359 43.36,7.99 L43.36,7.99 Z M39.36,3.99 C38.9644976,4.30670751 38.6262587,4.68891752 38.36,5.12 C37.84,6.03 37.68,7.12 37.99,7.4 C38.3,7.68 39.05,7.24 39.65,6.15 C39.8258468,5.83288241 39.9666751,5.49757679 40.07,5.15 C39.6603741,4.90019674 39.3961009,4.46842632 39.36,3.99 L39.36,3.99 Z M40.31,3.99 C40.31,3.59 40,3.69 39.95,3.99 C39.9106371,4.28704464 40.0233891,4.58395807 40.25,4.78 C40.2926024,4.51527143 40.2959719,4.24571074 40.26,3.98 L40.31,3.99 Z" id="Shape"></path>
                <path d="M44.74,6.21 C45.1441045,5.18917037 45.6606202,4.21651101 46.28,3.31 C46.39,3.17 46.47,3.13 46.57,3.24 C46.8148384,3.64234653 46.8148384,4.14765347 46.57,4.55 C46.32,5.08 45.81,5.89 45.57,6.49 C45.33,7.09 45.31,7.65 45.69,7.63 C46.4348407,7.35278702 47.0103521,6.74776219 47.25,5.99 C47.31,5.88 47.39,5.89 47.44,5.99 C47.5206484,6.23007205 47.4913801,6.49348668 47.36,6.71 C47.0350161,7.42115435 46.3495723,7.89981619 45.57,7.96 C44.64,7.96 44.36,7.19 44.74,6.21 L44.74,6.21 Z M47.41,3.08 C47.3030981,3.16575639 47.1617206,3.19541873 47.0293658,3.1598607 C46.8970109,3.12430268 46.789533,3.02778368 46.74,2.9 C46.5588534,2.6232622 46.5833484,2.25991995 46.8,2.01 C46.9216512,1.92261354 47.0788087,1.90148422 47.2192205,1.95363717 C47.3596323,2.00579012 47.464891,2.12438833 47.5,2.27 C47.6431462,2.53061701 47.6113631,2.85242096 47.42,3.08 L47.41,3.08 Z" id="Shape"></path>
                <path d="M50.75,3.81 C51,4.31 50.52,4.95 50.28,5.6 C50.28,5.74 50.18,5.78 50.03,5.7 C49.6999636,5.48378656 49.5768448,5.059239 49.74,4.7 C49.9479343,4.37809279 50.0590068,4.00322312 50.06,3.62 C49.86,3.45 48.96,4.22 48.42,5.31 C47.76,6.66 48.01,7.66 48.72,7.67 C49.7317302,7.50961821 50.6074084,6.87883306 51.08,5.97 C51.14,5.87 51.25,5.86 51.3,5.97 C51.3145087,6.228512 51.2365203,6.48374684 51.08,6.69 C50.5557207,7.46224833 49.7018642,7.94646998 48.77,8 C47.25,8 46.77,6.54 47.51,5 C48.25,3.46 49.51,2.84 50.09,3.2 C50.3640834,3.33563302 50.5932388,3.54742814 50.75,3.81 L50.75,3.81 Z M51.18,1.93 C50.75,2.13 50.11,2.48 49.8,2.58 C49.5995583,2.65173521 49.3804417,2.65173521 49.18,2.58 C49.08,2.58 49.07,2.47 49.18,2.39 C49.5543569,2.12898402 49.9489421,1.89825198 50.36,1.7 C50.629234,1.57359113 50.940766,1.57359113 51.21,1.7 C51.28,1.79 51.3,1.87 51.18,1.93 L51.18,1.93 Z" id="Shape"></path>
            </g>
        </g>
    </g>
</svg>