<svg id="Layer_1" data-name="Layer 1" xmlns="http://www.w3.org/2000/svg" viewBox="0 0 103.06 13.54"><defs><style>.cls-1{fill:#fff;}</style></defs><title>signature</title><path class="cls-1" d="M0,7.72c0-.19,0-0.31.23-0.29C1.93,7.53,5,7.13,7,7.2A1.38,1.38,0,0,1,8.54,8.35c0,0.19,0,.34-0.27.29C6.59,8.44,3,8.92,1.51,8.88A1.35,1.35,0,0,1,0,7.72Z"/><path class="cls-1" d="M16.65,1.67c-0.08-.23-0.06-0.36.21-0.4,1.45-.19,2.5-1,3.86-1.24A3,3,0,0,1,23.9,1.88c1.93,3.36-1.81,9.49-7.43,11.36a1.24,1.24,0,0,1-1.34-.15,4.51,4.51,0,0,1-.88-0.9c-0.4-.55-0.5-0.86-0.06-2.23A37.42,37.42,0,0,1,18,2.56,1.52,1.52,0,0,1,16.65,1.67Zm1.93,2.88a43.42,43.42,0,0,0-3.36,6.59c-0.27.88-.13,1.18,0.5,0.94C21.46,9.91,24.1,3.9,22.87,1.93c-0.73-1.18-2.27-.06-3.74.42A3.33,3.33,0,0,1,18.58,4.55Z"/><path class="cls-1" d="M30.89,5q0.28-.41.5-0.13a2.29,2.29,0,0,1,0,2.33c-0.46.94-1.51,2.52-2,3.63s-0.55,2.08.17,2,2-1.47,2.75-2.92c0.11-.19.25-0.21,0.34,0a1.88,1.88,0,0,1-.19,1.3c-0.54,1.15-1.87,2.31-3,2.25a1.63,1.63,0,0,1-1.72-1.72,3.68,3.68,0,0,1-2.62,1.64c-2,0-2.35-2.67-.61-5.21s3.36-3.42,4.41-3.42a1.28,1.28,0,0,1,1.28,1.51A14.64,14.64,0,0,1,30.89,5Zm-1.68.86C28.54,5.77,27,7.13,25.85,9s-1.39,3.65-.57,3.67,2-1.32,3-3.17C29.63,7.2,29.82,5.89,29.21,5.83Z"/><path class="cls-1" d="M38.45,4.82c0.71,0,1.09,1.13.82,2.06,1-1,2.42-2,3.11-2s0.92,1.26.5,2.31-1.41,2.33-1.93,3.38-0.29,2.16.46,2.14S43.21,11.35,44,9.88a0.21,0.21,0,0,1,.38,0,2,2,0,0,1-.19,1.32,4,4,0,0,1-3.15,2.25c-1.83,0-2.5-1.45-1.72-3.17S42,6.15,41.68,6s-0.88.17-2.25,1.53a18.25,18.25,0,0,0-3.65,5.73c-0.13.25-.29,0.31-0.48,0.1-0.36-.31-0.65-1.13,0-2.65C36,9,38.22,6.13,37.8,6c-0.25-.1-1.28.46-2.62,1.93a18.87,18.87,0,0,0-3.09,5.27c-0.08.19-.21,0.27-0.4,0.1-0.46-.4-0.57-1.09-0.21-2.16a34.74,34.74,0,0,1,3.3-6.26c0.15-.23.31-0.21,0.44,0a2.63,2.63,0,0,1,0,2.25C36.12,6,37.69,4.8,38.45,4.82Z"/><path class="cls-1" d="M53.65,5.08c0.25-.19.46-0.27,0.63-0.06a1.69,1.69,0,0,1,.27,2.12,12.36,12.36,0,0,0-2.37,3.67c-0.38,1.13-.15,2,0.52,2,0.84,0,1.91-1.34,2.58-2.92,0.08-.19.23-0.19,0.32,0a1.89,1.89,0,0,1-.11,1.36,3.37,3.37,0,0,1-2.94,2.12c-1.6,0-2.25-1.47-1.7-3.17a12.74,12.74,0,0,1,2.67-4A4.75,4.75,0,0,1,50.94,7c-1.3,3-3.4,6.07-5.69,6.32-1.62.17-2-1.32-1.49-3a23.43,23.43,0,0,1,2.71-5.1C46.66,5,46.81,4.91,47,5.1a2.34,2.34,0,0,1,0,2.31c-0.4.92-1.26,2.12-1.81,3.44s-0.44,2,.23,1.91c1.36-.17,3.57-2.58,4.75-5.84-1.62-.61.44-3.46,1.32-3.49,0.67,0,.4,1.3-0.1,2.62A5.21,5.21,0,0,0,53.65,5.08Zm-5.19-.25a0.74,0.74,0,0,1-1.18-.31A1.3,1.3,0,0,1,47.39,3a0.8,0.8,0,0,1,1.22.46A1.37,1.37,0,0,1,48.47,4.82Z"/><path class="cls-1" d="M60.14,13.26c-0.08.19-.21,0.23-0.34,0.06A2.44,2.44,0,0,1,59.7,11,71.08,71.08,0,0,1,65.12.33c0.19-.25.34-0.23,0.5,0,0.27,0.48.38,1.49-.48,3.07-0.55,1-1.24,2.23-2,3.63A60.79,60.79,0,0,0,70.83.23a0.22,0.22,0,0,1,.4,0,2.54,2.54,0,0,1-.65,2.2,35.78,35.78,0,0,1-6.63,5.84,23.4,23.4,0,0,1,1.49,2.62,2.24,2.24,0,0,1,0,2.33,0.21,0.21,0,0,1-.38,0A41,41,0,0,0,62.3,8.67C61.57,10.07,60.83,11.65,60.14,13.26Z"/><path class="cls-1" d="M73.37,8.83c-0.44,1.78-1.76,3.91-3.32,4.43a2.31,2.31,0,0,1-2.65-.92c-0.92-1.22-.61-3,0.34-4.72,0.8-1.43,2.08-2.65,3.34-2.73a1.43,1.43,0,0,1,1.43.71c0.48,0.65,1.11.8,1,2.31,0,0.17,0,.31,0,0.48,0.13,0,.25,0,0.42,0s0.15,0.1.06,0.21A0.86,0.86,0,0,1,73.37,8.83Zm-1.78-.52a2.61,2.61,0,0,1-1-1.85,7.36,7.36,0,0,0-1.62,2c-0.88,1.6-1.2,3.53-.65,4s1.87-.25,2.9-2.18A11,11,0,0,0,72,8.56,1.59,1.59,0,0,1,71.59,8.31ZM72.3,6.44c-0.11-.67-0.53-0.55-0.63.06A1.73,1.73,0,0,0,72.13,8,4,4,0,0,0,72.3,6.44Z"/><path class="cls-1" d="M75,4.36c-0.21-.29-0.08-0.44.23-0.42A12,12,0,0,0,77,3.86a26.78,26.78,0,0,1,1.6-2.6c0.19-.27.4-0.25,0.5,0a2.87,2.87,0,0,1-.27,2.37,1.32,1.32,0,0,1,1.3.63c0.15,0.25.06,0.4-.25,0.4a6.27,6.27,0,0,0-1.64.08c-0.82,1.41-2,3.44-2.81,5.21-0.69,1.53-.46,2.83.42,2.88s2.14-1.45,2.92-3c0.13-.25.36-0.29,0.44,0A1.76,1.76,0,0,1,79,11c-0.27.61-1.66,2.46-3.34,2.39-1.39,0-2.5-1.6-1.49-4,0.44-1,1.32-2.81,2.22-4.47A1.73,1.73,0,0,1,75,4.36Z"/><path class="cls-1" d="M89.06,13.45c-1.62-.08-2.27-1.49-1.74-3.21a12.92,12.92,0,0,1,2.63-4,4.81,4.81,0,0,1-2.54.82,3.22,3.22,0,0,1-2.6,1.7c-0.42,1.78-1.72,3.95-3.28,4.45a2.29,2.29,0,0,1-2.67-.9c-0.9-1.24-.59-3.07.31-4.72a4.93,4.93,0,0,1,3.38-2.73A1.4,1.4,0,0,1,84,5.58c0.5,0.65,1.11.78,1,2.31,0,0.1,0,.21,0,0.34a2.39,2.39,0,0,0,1.64-1.3c-1.55-.67.5-3.44,1.34-3.46S88.26,5,87.84,6.08a5.49,5.49,0,0,0,2.27-1c0.27-.19.46-0.25,0.63,0A1.69,1.69,0,0,1,91,7.18a12.45,12.45,0,0,0-2.37,3.65c-0.4,1.15-.15,2,0.52,2C90,12.91,91.07,11.5,91.74,10c0.08-.19.23-0.23,0.32,0A1.83,1.83,0,0,1,92,11.29,3.39,3.39,0,0,1,89.06,13.45Zm-7-7a7.75,7.75,0,0,0-1.62,2c-0.9,1.6-1.2,3.51-.65,4s1.85-.27,2.9-2.18a8.83,8.83,0,0,0,.74-1.72A2.6,2.6,0,0,1,82.07,6.44Zm1.66,0c-0.08-.69-0.55-0.52-0.63.08a1.56,1.56,0,0,0,.52,1.39A4.75,4.75,0,0,0,83.72,6.42Z"/><path class="cls-1" d="M91.56,10.33a25.92,25.92,0,0,1,2.69-5.1c0.19-.25.34-0.31,0.5-0.13a2.2,2.2,0,0,1,0,2.29c-0.44.92-1.32,2.35-1.76,3.4-0.5,1.22-.46,2,0.21,2,0.94,0,2.1-1.43,2.73-2.88,0.11-.19.25-0.17,0.34,0a1.49,1.49,0,0,1-.15,1.3A3.77,3.77,0,0,1,93,13.39C91.37,13.39,91,12,91.56,10.33Zm4.68-5.48a0.76,0.76,0,0,1-1.18-.31A1.3,1.3,0,0,1,95.17,3a0.8,0.8,0,0,1,1.22.46A1.27,1.27,0,0,1,96.24,4.85Z"/><path class="cls-1" d="M102.08,6.13c0.44,0.88-.4,2-0.82,3.13-0.08.25-.17,0.31-0.44,0.17a1.4,1.4,0,0,1-.5-1.83c0.23-.76.86-1.66,0.57-1.89s-1.93,1-2.88,3c-1.16,2.37-.71,4.12.52,4.14,1.76,0,3.28-1.66,4.14-3,0.11-.17.29-0.19,0.38,0a1.9,1.9,0,0,1-.38,1.26,5.24,5.24,0,0,1-4.05,2.29c-2.67,0-3.57-2.56-2.2-5.27S99.87,4.34,100.92,5A2.78,2.78,0,0,1,102.08,6.13Zm0.76-3.3c-0.76.36-1.87,1-2.41,1.13a1.61,1.61,0,0,1-1.09,0c-0.17-.08-0.19-0.19,0-0.34a15,15,0,0,1,2-1.22,1.71,1.71,0,0,1,1.49.06C103,2.6,103,2.72,102.83,2.83Z"/></svg>